<svg width="1440" height="1001" viewBox="0 0 1440 1001" fill="none" xmlns="http://www.w3.org/2000/svg">
<g clip-path="url(#clip0_577_868)">
<rect width="1440" height="1001" fill="#F8F9FB"/>
<g clip-path="url(#clip1_577_868)">
<rect width="1440" height="1001" fill="black"/>
<g opacity="0.6" filter="url(#filter0_f_577_868)">
<ellipse cx="610.5" cy="701" rx="578.5" ry="386" fill="#5E19F0"/>
</g>
<g opacity="0.6" filter="url(#filter1_f_577_868)">
<circle cx="162.999" cy="851" r="386" fill="#3719F0"/>
</g>
<g opacity="0.7" filter="url(#filter2_f_577_868)">
<path d="M408.341 643.087C219.706 641.559 -29.2631 720.987 2.8126 1183.81C528.753 1214.87 1588.58 1276.37 1620.35 1273.93C1660.06 1270.87 1964.78 862.277 1976.23 850.821C1987.69 839.366 2038.86 735.498 1710.46 468.192C1382.07 200.887 1104.84 406.521 912.389 541.51C719.935 676.5 596.977 644.614 408.341 643.087Z" fill="#6849E1"/>
</g>
<mask id="mask0_577_868" style="mask-type:alpha" maskUnits="userSpaceOnUse" x="839" y="623" width="854" height="741">
<ellipse cx="1266.07" cy="993.341" rx="484.544" ry="289.781" transform="rotate(-36.2854 1266.07 993.341)" fill="url(#paint0_radial_577_868)"/>
</mask>
<g mask="url(#mask0_577_868)">
<path d="M841.748 1252.45C781.3 1275.65 768.018 1299.42 732.262 1355.12L1314.1 1571.28C1462.36 1345.72 1719.31 913.771 1617.28 872.936C1510.51 830.206 1347.75 848.004 1247.93 896.916C1148.11 945.829 1067.66 1109.13 1029.87 1167.25C994.859 1221.09 902.196 1229.25 841.748 1252.45Z" fill="#7C7AEA"/>
<g filter="url(#filter3_f_577_868)">
<path d="M841.748 1251.45C781.3 1274.65 768.018 1298.42 732.262 1354.12L1314.1 1570.28C1462.36 1344.72 1682.8 847.043 1580.76 806.208C1500.08 773.918 1353.43 851.532 1278.26 896.13C1253.96 910.548 1271.16 926.888 1255.93 927.916C1145.02 935.402 1067.66 1108.13 1029.87 1166.25C994.859 1220.09 902.196 1228.25 841.748 1251.45Z" fill="#7C7AEA"/>
</g>
<g filter="url(#filter4_f_577_868)">
<path d="M825.748 1244.45C765.3 1267.65 752.018 1291.42 716.262 1347.12L1314.1 1571.28C1462.36 1345.72 1591.31 889.771 1489.28 848.936C1393.57 810.632 1338.15 856.11 1260.76 900.555C1251.82 905.689 1266.27 907.85 1255.93 912.916C1156.11 961.829 1051.66 1101.13 1013.87 1159.25C978.859 1213.09 886.196 1221.25 825.748 1244.45Z" fill="#7C7AEA"/>
</g>
<g filter="url(#filter5_f_577_868)">
<path d="M809.748 1236.45C749.3 1259.65 736.018 1283.42 700.262 1339.12L1314.1 1571.28C1462.36 1345.72 1743.31 833.771 1641.28 792.936C1555.16 758.47 1402.81 842.203 1308.26 879.115C1285.59 887.964 1272.23 905.457 1252.93 914.916C1153.11 963.829 1035.66 1093.13 997.873 1151.25C962.859 1205.09 870.196 1213.25 809.748 1236.45Z" fill="#7C7AEA"/>
</g>
<g filter="url(#filter6_f_577_868)">
<path d="M758.748 1214.6C698.3 1237.8 685.018 1261.57 649.262 1317.27L1279.1 1565.43C1427.36 1339.87 1556.31 883.922 1454.28 843.087C1375.15 811.416 1314.97 876.58 1277.26 900.009C1264.09 908.19 1301.86 922.208 1273.26 922.208C1162.76 922.208 1183.65 1038.52 1001.76 1115.21C942.579 1140.16 819.196 1191.4 758.748 1214.6Z" fill="#7C7AEA"/>
</g>
</g>
<g opacity="0.7" filter="url(#filter7_f_577_868)">
<circle cx="1388.5" cy="836.501" r="164.5" fill="#B819F0"/>
</g>
<g opacity="0.3" filter="url(#filter8_f_577_868)">
<ellipse cx="661.5" cy="840.501" rx="368.5" ry="164.5" fill="black"/>
</g>
<g opacity="0.6" filter="url(#filter9_f_577_868)">
<ellipse cx="1005.8" cy="793.081" rx="164.5" ry="48.7174" transform="rotate(-41.2443 1005.8 793.081)" fill="#28009B"/>
</g>
<g opacity="0.6">
<mask id="mask1_577_868" style="mask-type:alpha" maskUnits="userSpaceOnUse" x="-637" y="408" width="1472" height="975">
<path d="M-423.319 1382.69C-478.281 1065.5 -632.988 588.289 -637 572.716L834.678 408.847L764.651 1174.83L-423.319 1382.69Z" fill="url(#paint1_linear_577_868)"/>
</mask>
<g mask="url(#mask1_577_868)">
<path d="M16.0637 635.702C150.051 612.258 276.092 669.064 288.094 737.662C300.097 806.26 261.609 905.772 117.852 930.925C46.6138 943.39 -31.8597 1004.38 -122.474 985.028C-214.716 965.329 -211.495 868.342 -217.55 833.738C-229.552 765.14 -117.924 659.146 16.0637 635.702Z" fill="#7371FF"/>
<g filter="url(#filter10_f_577_868)">
<path d="M15.4868 641.858C159.185 616.716 273.534 664.492 283.851 723.457C294.168 782.421 253.491 869.288 109.792 894.431C38.583 906.89 -40.7137 962.968 -130.454 948.408C-221.807 933.586 -216.295 849.739 -221.499 819.994C-231.816 761.029 -128.212 667.001 15.4868 641.858Z" fill="#7371FF"/>
</g>
<g filter="url(#filter11_f_577_868)">
<path d="M19.84 641.097C180.898 612.917 310.351 673.837 323.07 746.533C335.79 819.229 291.716 925.261 130.658 953.441C50.8459 967.406 -36.0424 1041.62 -137.2 1022.01C-240.174 1002.05 -236.649 892.91 -243.066 856.238C-255.785 783.542 -141.218 669.277 19.84 641.097Z" fill="#7371FF"/>
</g>
<g filter="url(#filter12_f_577_868)">
<path d="M39.9341 646.455C241.902 629.494 423.111 694.962 437.997 780.043C452.884 865.125 368.051 974.761 174.894 1008.56C79.1756 1025.31 -27.6474 1139.56 -148.782 1117.09C-272.093 1094.22 -266.074 973.572 -273.583 930.653C-288.47 845.571 -194.035 666.102 39.9341 646.455Z" fill="#7371FF"/>
</g>
<g filter="url(#filter13_f_577_868)">
<path d="M112.954 669.165C320.934 632.775 519.161 711.067 533.716 794.252C548.27 877.436 455.334 986.377 247.354 1022.77C144.29 1040.8 24.7063 1094.44 -104.99 1074.44C-237.017 1054.08 -228.524 935.671 -235.866 893.708C-250.421 810.523 -95.0251 705.555 112.954 669.165Z" fill="#7371FF"/>
</g>
<g filter="url(#filter14_f_577_868)">
<path d="M199.712 688.206C414.64 650.601 619.286 730.345 634.172 815.426C649.059 900.508 552.851 1012.13 337.923 1049.74C231.416 1068.38 107.778 1123.47 -26.1744 1103.24C-162.533 1082.65 -153.547 961.487 -161.056 918.568C-175.943 833.486 -15.2153 725.812 199.712 688.206Z" fill="#7371FF"/>
</g>
<g filter="url(#filter15_f_577_868)">
<path d="M35.6912 702.961C223.753 670.056 405.27 753.847 420.157 838.928C435.043 924.01 352.873 1033.18 164.811 1066.08C71.6176 1082.39 -37.577 1124.82 -155.712 1101.83C-275.969 1078.42 -270.644 957.892 -278.153 914.972C-293.04 829.891 -152.37 735.865 35.6912 702.961Z" fill="#7371FF"/>
</g>
</g>
</g>
</g>
</g>
<defs>
<filter id="filter0_f_577_868" x="-380" y="-97" width="1981" height="1596" filterUnits="userSpaceOnUse" color-interpolation-filters="sRGB">
<feFlood flood-opacity="0" result="BackgroundImageFix"/>
<feBlend mode="normal" in="SourceGraphic" in2="BackgroundImageFix" result="shape"/>
<feGaussianBlur stdDeviation="206" result="effect1_foregroundBlur_577_868"/>
</filter>
<filter id="filter1_f_577_868" x="-635.001" y="53.0002" width="1596" height="1596" filterUnits="userSpaceOnUse" color-interpolation-filters="sRGB">
<feFlood flood-opacity="0" result="BackgroundImageFix"/>
<feBlend mode="normal" in="SourceGraphic" in2="BackgroundImageFix" result="shape"/>
<feGaussianBlur stdDeviation="206" result="effect1_foregroundBlur_577_868"/>
</filter>
<filter id="filter2_f_577_868" x="-156" y="181.999" width="2298" height="1248" filterUnits="userSpaceOnUse" color-interpolation-filters="sRGB">
<feFlood flood-opacity="0" result="BackgroundImageFix"/>
<feBlend mode="normal" in="SourceGraphic" in2="BackgroundImageFix" result="shape"/>
<feGaussianBlur stdDeviation="78" result="effect1_foregroundBlur_577_868"/>
</filter>
<filter id="filter3_f_577_868" x="712.262" y="778.559" width="914.56" height="811.722" filterUnits="userSpaceOnUse" color-interpolation-filters="sRGB">
<feFlood flood-opacity="0" result="BackgroundImageFix"/>
<feBlend mode="normal" in="SourceGraphic" in2="BackgroundImageFix" result="shape"/>
<feGaussianBlur stdDeviation="10" result="effect1_foregroundBlur_577_868"/>
</filter>
<filter id="filter4_f_577_868" x="688.262" y="806.556" width="865.542" height="792.724" filterUnits="userSpaceOnUse" color-interpolation-filters="sRGB">
<feFlood flood-opacity="0" result="BackgroundImageFix"/>
<feBlend mode="normal" in="SourceGraphic" in2="BackgroundImageFix" result="shape"/>
<feGaussianBlur stdDeviation="14" result="effect1_foregroundBlur_577_868"/>
</filter>
<filter id="filter5_f_577_868" x="664.262" y="748.788" width="1034.83" height="858.493" filterUnits="userSpaceOnUse" color-interpolation-filters="sRGB">
<feFlood flood-opacity="0" result="BackgroundImageFix"/>
<feBlend mode="normal" in="SourceGraphic" in2="BackgroundImageFix" result="shape"/>
<feGaussianBlur stdDeviation="18" result="effect1_foregroundBlur_577_868"/>
</filter>
<filter id="filter6_f_577_868" x="597.262" y="782.571" width="945.541" height="834.86" filterUnits="userSpaceOnUse" color-interpolation-filters="sRGB">
<feFlood flood-opacity="0" result="BackgroundImageFix"/>
<feBlend mode="normal" in="SourceGraphic" in2="BackgroundImageFix" result="shape"/>
<feGaussianBlur stdDeviation="26" result="effect1_foregroundBlur_577_868"/>
</filter>
<filter id="filter7_f_577_868" x="1012" y="460.001" width="753" height="753" filterUnits="userSpaceOnUse" color-interpolation-filters="sRGB">
<feFlood flood-opacity="0" result="BackgroundImageFix"/>
<feBlend mode="normal" in="SourceGraphic" in2="BackgroundImageFix" result="shape"/>
<feGaussianBlur stdDeviation="106" result="effect1_foregroundBlur_577_868"/>
</filter>
<filter id="filter8_f_577_868" x="81" y="464.001" width="1161" height="753" filterUnits="userSpaceOnUse" color-interpolation-filters="sRGB">
<feFlood flood-opacity="0" result="BackgroundImageFix"/>
<feBlend mode="normal" in="SourceGraphic" in2="BackgroundImageFix" result="shape"/>
<feGaussianBlur stdDeviation="106" result="effect1_foregroundBlur_577_868"/>
</filter>
<filter id="filter9_f_577_868" x="665.983" y="466.58" width="679.643" height="653.001" filterUnits="userSpaceOnUse" color-interpolation-filters="sRGB">
<feFlood flood-opacity="0" result="BackgroundImageFix"/>
<feBlend mode="normal" in="SourceGraphic" in2="BackgroundImageFix" result="shape"/>
<feGaussianBlur stdDeviation="106" result="effect1_foregroundBlur_577_868"/>
</filter>
<filter id="filter10_f_577_868" x="-229.747" y="627.459" width="522.653" height="330.883" filterUnits="userSpaceOnUse" color-interpolation-filters="sRGB">
<feFlood flood-opacity="0" result="BackgroundImageFix"/>
<feBlend mode="normal" in="SourceGraphic" in2="BackgroundImageFix" result="shape"/>
<feGaussianBlur stdDeviation="3.76999" result="effect1_foregroundBlur_577_868"/>
</filter>
<filter id="filter11_f_577_868" x="-270.419" y="607.681" width="621.938" height="443.997" filterUnits="userSpaceOnUse" color-interpolation-filters="sRGB">
<feFlood flood-opacity="0" result="BackgroundImageFix"/>
<feBlend mode="normal" in="SourceGraphic" in2="BackgroundImageFix" result="shape"/>
<feGaussianBlur stdDeviation="13.195" result="effect1_foregroundBlur_577_868"/>
</filter>
<filter id="filter12_f_577_868" x="-312.794" y="606.065" width="790.154" height="551.644" filterUnits="userSpaceOnUse" color-interpolation-filters="sRGB">
<feFlood flood-opacity="0" result="BackgroundImageFix"/>
<feBlend mode="normal" in="SourceGraphic" in2="BackgroundImageFix" result="shape"/>
<feGaussianBlur stdDeviation="18.8499" result="effect1_foregroundBlur_577_868"/>
</filter>
<filter id="filter13_f_577_868" x="-338.6" y="558.218" width="975.581" height="622.414" filterUnits="userSpaceOnUse" color-interpolation-filters="sRGB">
<feFlood flood-opacity="0" result="BackgroundImageFix"/>
<feBlend mode="normal" in="SourceGraphic" in2="BackgroundImageFix" result="shape"/>
<feGaussianBlur stdDeviation="50.8948" result="effect1_foregroundBlur_577_868"/>
</filter>
<filter id="filter14_f_577_868" x="-414.601" y="426.055" width="1302.86" height="934.174" filterUnits="userSpaceOnUse" color-interpolation-filters="sRGB">
<feFlood flood-opacity="0" result="BackgroundImageFix"/>
<feBlend mode="normal" in="SourceGraphic" in2="BackgroundImageFix" result="shape"/>
<feGaussianBlur stdDeviation="126.295" result="effect1_foregroundBlur_577_868"/>
</filter>
<filter id="filter15_f_577_868" x="-396.104" y="578.769" width="934.839" height="646.608" filterUnits="userSpaceOnUse" color-interpolation-filters="sRGB">
<feFlood flood-opacity="0" result="BackgroundImageFix"/>
<feBlend mode="normal" in="SourceGraphic" in2="BackgroundImageFix" result="shape"/>
<feGaussianBlur stdDeviation="58.4348" result="effect1_foregroundBlur_577_868"/>
</filter>
<radialGradient id="paint0_radial_577_868" cx="0" cy="0" r="1" gradientTransform="matrix(-83.0416 336.183 -562.032 -48.5614 1349.12 946.938)" gradientUnits="userSpaceOnUse">
<stop offset="0.120131" stop-color="#C4C4C4"/>
<stop offset="0.692585" stop-color="#C4C4C4" stop-opacity="0"/>
</radialGradient>
<linearGradient id="paint1_linear_577_868" x1="-35.2069" y1="675.191" x2="72.5353" y2="1194.65" gradientUnits="userSpaceOnUse">
<stop stop-color="#C4C4C4"/>
<stop offset="1" stop-color="#C4C4C4" stop-opacity="0"/>
</linearGradient>
<clipPath id="clip0_577_868">
<rect width="1440" height="1001" fill="white"/>
</clipPath>
<clipPath id="clip1_577_868">
<rect width="1440" height="1001" fill="white"/>
</clipPath>
</defs>
</svg>
